# xmcd CD database file
#
# Track frame offsets:
#	150
#	16793
#	36348
#	49498
#	60074
#	72447
#	83300
#	98479
#	113721
#	124691
#	140466
#	154686
#	183617
#	214026
#	244335
#	267735
#	293466
#	318430
#
# Disc length: 4487 seconds
#
# Revision: 0
# Processed by: cddbd v1.5.2PL0 Copyright (c) Steve Scherf et al.
# Submitted via: CDex 1.70beta2
#
DISCID=f6118512
DTITLE=Art Pepper - Work of Art 2 - Abstract Art
DYEAR=1956
DGENRE=Jazz
TTITLE0=Patricia
TTITLE1=You Go to My Head
TTITLE2=Abstract Art
TTITLE3=Over the Rainbow
TTITLE4=Melancholy Madeline
TTITLE5=Sidewinder
TTITLE6=You and the Night and the Music
TTITLE7=All the Things You Are
TTITLE8=Marty's Blues
TTITLE9=Pitfall
TTITLE10=What's Right for You
TTITLE11=For Miles and Miles
TTITLE12=Picture of Heath
TTITLE13=Minor Yours
TTITLE14=C.T.A.
TTITLE15=Resonant Emotions
TTITLE16=Tynan Time
TTITLE17=For Minors Only
EXTD=YEAR: 1956
EXTT0=
EXTT1=
EXTT2=
EXTT3=
EXTT4=
EXTT5=
EXTT6=
EXTT7=
EXTT8=
EXTT9=
EXTT10=
EXTT11=
EXTT12=
EXTT13=
EXTT14=
EXTT15=
EXTT16=
EXTT17=
PLAYORDER=
